<svg width="18" height="20" viewBox="0 0 18 20" fill="none" xmlns="http://www.w3.org/2000/svg">
<path d="M5.68392 11.074L11.755 14.656M11.7461 4.774L5.68392 8.356M16.715 3.415C16.715 4.90616 15.5211 6.115 14.0484 6.115C12.5756 6.115 11.3817 4.90616 11.3817 3.415C11.3817 1.92383 12.5756 0.714996 14.0484 0.714996C15.5211 0.714996 16.715 1.92383 16.715 3.415ZM6.04836 9.715C6.04836 11.2062 4.85445 12.415 3.38169 12.415C1.90893 12.415 0.715027 11.2062 0.715027 9.715C0.715027 8.22383 1.90893 7.015 3.38169 7.015C4.85445 7.015 6.04836 8.22383 6.04836 9.715ZM16.715 16.015C16.715 17.5062 15.5211 18.715 14.0484 18.715C12.5756 18.715 11.3817 17.5062 11.3817 16.015C11.3817 14.5238 12.5756 13.315 14.0484 13.315C15.5211 13.315 16.715 14.5238 16.715 16.015Z" stroke="#5C5F6A" stroke-width="1.43" stroke-linecap="round" stroke-linejoin="round"/>
</svg>
